<svg width="44" height="44" viewBox="0 0 44 44" fill="none" xmlns="http://www.w3.org/2000/svg">
<path fill-rule="evenodd" clip-rule="evenodd" d="M22 41.25C11.3685 41.25 2.75 32.6287 2.75 22C2.75 11.3713 11.3685 2.75 22 2.75C32.6315 2.75 41.25 11.3713 41.25 22C41.25 32.6287 32.6315 41.25 22 41.25ZM22 0C9.84912 0 0 9.845 0 22C0 34.155 9.84912 44 22 44C34.1509 44 44 34.155 44 22C44 9.845 34.1509 0 22 0ZM29.8608 14.135C29.3191 13.5988 28.4432 13.5988 27.9015 14.135L21.9918 20.0474L16.1672 14.2175C15.6296 13.6812 14.7579 13.6812 14.223 14.2175C13.6854 14.7537 13.6854 15.6338 14.223 16.17L20.0475 21.9862L14.1818 27.8575C13.6414 28.3938 13.6414 29.2737 14.1818 29.8237C14.7235 30.3599 15.6007 30.3599 16.1425 29.8237L22.0082 23.9526L27.8328 29.7825C28.3704 30.3188 29.2421 30.3188 29.7784 29.7825C30.316 29.2463 30.316 28.3662 29.7784 27.83L23.9525 22.0138L29.8608 16.1012C30.4012 15.5512 30.4012 14.685 29.8608 14.135Z" fill="#111827"/>
</svg>
