<svg width="48" height="48" viewBox="0 0 48 48" fill="none" xmlns="http://www.w3.org/2000/svg">
<path fill-rule="evenodd" clip-rule="evenodd" d="M23.9979 2.71997C12.2485 2.71997 2.71991 12.2473 2.71991 24.0007C2.71991 33.4012 8.81672 41.3779 17.2728 44.1932C18.3375 44.3878 18.7255 43.7305 18.7255 43.1664C18.7255 42.6608 18.7072 41.3232 18.6967 39.5478C12.7776 40.8332 11.5287 36.6947 11.5287 36.6947C10.5607 34.2361 9.16552 33.5814 9.16552 33.5814C7.23339 32.262 9.31183 32.2883 9.31183 32.2883C11.4477 32.4384 12.5712 34.4816 12.5712 34.4816C14.4693 37.7331 17.5524 36.7939 18.7647 36.2492C18.958 34.8748 19.508 33.9369 20.1154 33.4051C15.3903 32.8668 10.4222 31.042 10.4222 22.8877C10.4222 20.5636 11.2518 18.6655 12.613 17.1776C12.3936 16.6393 11.6633 14.476 12.822 11.5458C12.822 11.5458 14.6078 10.9736 18.6732 13.7261C20.3702 13.2545 22.1912 13.0193 24.0006 13.0102C25.8086 13.0193 27.6283 13.2545 29.3279 13.7261C33.3907 10.9736 35.1737 11.5458 35.1737 11.5458C36.3353 14.476 35.6051 16.6393 35.3869 17.1776C36.7507 18.6655 37.5737 20.5636 37.5737 22.8877C37.5737 31.0629 32.5977 32.8617 27.8583 33.3881C28.6212 34.0454 29.3018 35.344 29.3018 37.3296C29.3018 40.1734 29.2757 42.4688 29.2757 43.1664C29.2757 43.736 29.6597 44.3983 30.7388 44.1903C39.1885 41.3702 45.28 33.4 45.28 24.0007C45.28 12.2473 35.7513 2.71997 23.9979 2.71997Z" fill="#F9FAFB"/>
</svg>
