<svg width="48" height="48" viewBox="0 0 48 48" fill="none" xmlns="http://www.w3.org/2000/svg">
<path d="M43.167 1.5061H4.82701C4.81501 1.5061 4.80151 1.5061 4.78651 1.5061C2.98801 1.5061 1.52851 2.9521 1.50751 4.7446V43.2526C1.52851 45.0466 2.98801 46.4941 4.78651 46.4941C4.80151 46.4941 4.81501 46.4941 4.83001 46.4941H43.1625C43.1745 46.4941 43.1895 46.4941 43.2045 46.4941C45.0045 46.4941 46.467 45.0496 46.4955 43.2556V43.2526V4.7476C46.467 2.9521 45.0045 1.5061 43.203 1.5061C43.188 1.5061 43.1745 1.5061 43.1595 1.5061H43.167ZM14.85 39.8431H8.16901V18.3766H14.85V39.8431ZM11.511 15.4396C9.37351 15.4396 7.64251 13.7071 7.64251 11.5711C7.64251 9.4351 9.37501 7.7026 11.511 7.7026C13.647 7.7026 15.3795 9.4336 15.3795 11.5696C15.3795 11.5711 15.3795 11.5726 15.3795 11.5756C15.3795 13.7101 13.6485 15.4411 11.514 15.4411C11.5125 15.4411 11.511 15.4411 11.5095 15.4411L11.511 15.4396ZM39.834 39.8431H33.1725V29.4046C33.1725 26.9146 33.1215 23.7121 29.7015 23.7121C26.2275 23.7121 25.698 26.4211 25.698 29.2216V39.8446H19.0365V18.3781H25.4355V21.3046H25.5225C26.7645 19.2121 29.0115 17.8321 31.581 17.8321C31.6725 17.8321 31.7625 17.8336 31.8525 17.8366H31.839C38.589 17.8366 39.837 22.2796 39.837 28.0621V39.8446L39.834 39.8431Z" fill="#F9FAFB"/>
</svg>
